<svg xmlns="http://www.w3.org/2000/svg" xmlns:xlink="http://www.w3.org/1999/xlink" width="500" zoomAndPan="magnify" viewBox="0 0 375 374.999991" height="500" preserveAspectRatio="xMidYMid meet" version="1.0"><defs><g/><clipPath id="22aaa3990e"><path d="M 8.023438 88.28125 L 360.523438 88.28125 L 360.523438 191.78125 L 8.023438 191.78125 Z M 8.023438 88.28125 " clip-rule="nonzero"/></clipPath></defs><g clip-path="url(#22aaa3990e)"><path fill="#050a30" d="M 8.035156 88.28125 L 360.511719 88.28125 L 360.511719 191.78125 L 8.035156 191.78125 L 8.035156 88.28125 " fill-opacity="1" fill-rule="nonzero"/></g><g fill="#f4f6fc" fill-opacity="1"><g transform="translate(118.777325, 195.798887)"><g><path d="M 17.015625 0 C 15.953125 0 15.421875 -0.535156 15.421875 -1.609375 L 15.421875 -84.734375 C 15.421875 -85.804688 15.953125 -86.34375 17.015625 -86.34375 L 25.15625 -86.34375 C 26.5625 -86.34375 27.710938 -85.847656 28.609375 -84.859375 L 104.109375 -14.796875 L 104.71875 -14.796875 L 104.71875 -84.734375 C 104.71875 -85.804688 105.253906 -86.34375 106.328125 -86.34375 L 113.96875 -86.34375 C 115.125 -86.34375 115.703125 -85.804688 115.703125 -84.734375 L 115.703125 -1.609375 C 115.703125 -0.535156 115.125 0 113.96875 0 L 106.453125 0 C 105.296875 0 104.222656 -0.492188 103.234375 -1.484375 L 27.015625 -72.15625 L 26.390625 -72.15625 L 26.390625 -1.609375 C 26.390625 -0.535156 25.859375 0 24.796875 0 Z M 17.015625 0 "/></g></g></g><g fill="#050a30" fill-opacity="1"><g transform="translate(13.403668, 238.238436)"><g><path d="M 8.296875 0 C 6.398438 0 5 -0.453125 4.09375 -1.359375 C 3.1875 -2.273438 2.734375 -3.691406 2.734375 -5.609375 L 2.734375 -7.15625 C 2.734375 -7.632812 2.96875 -7.875 3.4375 -7.875 L 8.21875 -7.875 C 8.695312 -7.875 8.9375 -7.632812 8.9375 -7.15625 L 8.9375 -6.375 C 8.9375 -5.082031 9.585938 -4.4375 10.890625 -4.4375 L 23.46875 -4.4375 C 24.226562 -4.4375 24.769531 -4.601562 25.09375 -4.9375 C 25.425781 -5.28125 25.59375 -5.820312 25.59375 -6.5625 L 25.59375 -8.046875 C 25.59375 -8.804688 25.425781 -9.347656 25.09375 -9.671875 C 24.769531 -10.003906 24.226562 -10.171875 23.46875 -10.171875 L 8.828125 -10.171875 C 6.929688 -10.171875 5.53125 -10.625 4.625 -11.53125 C 3.71875 -12.445312 3.265625 -13.847656 3.265625 -15.734375 L 3.265625 -19.25 C 3.265625 -21.144531 3.71875 -22.546875 4.625 -23.453125 C 5.53125 -24.359375 6.929688 -24.8125 8.828125 -24.8125 L 24.890625 -24.8125 C 26.773438 -24.8125 28.171875 -24.359375 29.078125 -23.453125 C 29.992188 -22.546875 30.453125 -21.144531 30.453125 -19.25 L 30.453125 -17.765625 C 30.453125 -17.285156 30.21875 -17.046875 29.75 -17.046875 L 24.953125 -17.046875 C 24.484375 -17.046875 24.25 -17.257812 24.25 -17.6875 L 24.25 -18.4375 C 24.25 -19.09375 24.078125 -19.582031 23.734375 -19.90625 C 23.390625 -20.226562 22.851562 -20.390625 22.125 -20.390625 L 11.421875 -20.390625 C 10.679688 -20.390625 10.140625 -20.222656 9.796875 -19.890625 C 9.453125 -19.554688 9.28125 -19.015625 9.28125 -18.265625 L 9.28125 -16.734375 C 9.28125 -16.003906 9.453125 -15.46875 9.796875 -15.125 C 10.140625 -14.78125 10.679688 -14.609375 11.421875 -14.609375 L 26.015625 -14.609375 C 27.929688 -14.609375 29.34375 -14.148438 30.25 -13.234375 C 31.164062 -12.328125 31.625 -10.929688 31.625 -9.046875 L 31.625 -5.609375 C 31.625 -3.691406 31.164062 -2.273438 30.25 -1.359375 C 29.34375 -0.453125 27.929688 0 26.015625 0 Z M 8.296875 0 "/></g></g></g><g fill="#050a30" fill-opacity="1"><g transform="translate(58.145388, 238.238436)"><g><path d="M 30.3125 -4.78125 C 30.78125 -4.78125 31.015625 -4.546875 31.015625 -4.078125 L 31.015625 -0.703125 C 31.015625 -0.234375 30.78125 0 30.3125 0 L 4.4375 0 C 3.957031 0 3.71875 -0.234375 3.71875 -0.703125 L 3.71875 -24.109375 C 3.71875 -24.578125 3.957031 -24.8125 4.4375 -24.8125 L 29.953125 -24.8125 C 30.429688 -24.8125 30.671875 -24.578125 30.671875 -24.109375 L 30.671875 -20.734375 C 30.671875 -20.265625 30.429688 -20.03125 29.953125 -20.03125 L 9.578125 -20.03125 L 9.578125 -14.8125 L 25.703125 -14.8125 C 26.171875 -14.8125 26.40625 -14.578125 26.40625 -14.109375 L 26.40625 -10.921875 C 26.40625 -10.441406 26.171875 -10.203125 25.703125 -10.203125 L 9.578125 -10.203125 L 9.578125 -4.78125 Z M 30.3125 -4.78125 "/></g></g></g><g fill="#050a30" fill-opacity="1"><g transform="translate(101.752701, 238.238436)"><g><path d="M 9.921875 0 C 7.796875 0 6.1875 -0.546875 5.09375 -1.640625 C 4.007812 -2.742188 3.46875 -4.359375 3.46875 -6.484375 L 3.46875 -18.359375 C 3.46875 -20.492188 4.007812 -22.101562 5.09375 -23.1875 C 6.1875 -24.269531 7.796875 -24.8125 9.921875 -24.8125 L 27.828125 -24.8125 C 29.953125 -24.8125 31.5625 -24.269531 32.65625 -23.1875 C 33.757812 -22.101562 34.3125 -20.492188 34.3125 -18.359375 L 34.3125 -16.125 C 34.3125 -15.65625 34.078125 -15.421875 33.609375 -15.421875 L 28.890625 -15.421875 C 28.421875 -15.421875 28.1875 -15.65625 28.1875 -16.125 L 28.1875 -17.4375 C 28.1875 -18.289062 27.976562 -18.921875 27.5625 -19.328125 C 27.144531 -19.742188 26.488281 -19.953125 25.59375 -19.953125 L 12.015625 -19.953125 C 11.066406 -19.953125 10.378906 -19.738281 9.953125 -19.3125 C 9.535156 -18.894531 9.328125 -18.210938 9.328125 -17.265625 L 9.328125 -7.59375 C 9.328125 -6.644531 9.535156 -5.957031 9.953125 -5.53125 C 10.378906 -5.101562 11.066406 -4.890625 12.015625 -4.890625 L 25.59375 -4.890625 C 26.488281 -4.890625 27.144531 -5.085938 27.5625 -5.484375 C 27.976562 -5.890625 28.1875 -6.53125 28.1875 -7.40625 L 28.1875 -8.6875 C 28.1875 -9.15625 28.421875 -9.390625 28.890625 -9.390625 L 33.609375 -9.390625 C 34.078125 -9.390625 34.3125 -9.15625 34.3125 -8.6875 L 34.3125 -6.484375 C 34.3125 -4.359375 33.757812 -2.742188 32.65625 -1.640625 C 31.5625 -0.546875 29.953125 0 27.828125 0 Z M 9.921875 0 "/></g></g></g><g fill="#050a30" fill-opacity="1"><g transform="translate(149.968537, 238.238436)"><g><path d="M 10.203125 0 C 8.078125 0 6.460938 -0.546875 5.359375 -1.640625 C 4.265625 -2.742188 3.71875 -4.359375 3.71875 -6.484375 L 3.71875 -24.109375 C 3.71875 -24.578125 3.957031 -24.8125 4.4375 -24.8125 L 8.859375 -24.8125 C 9.335938 -24.8125 9.578125 -24.578125 9.578125 -24.109375 L 9.578125 -8.015625 C 9.578125 -7.066406 9.785156 -6.378906 10.203125 -5.953125 C 10.628906 -5.523438 11.316406 -5.3125 12.265625 -5.3125 L 25.78125 -5.3125 C 26.71875 -5.3125 27.398438 -5.523438 27.828125 -5.953125 C 28.253906 -6.378906 28.46875 -7.066406 28.46875 -8.015625 L 28.46875 -24.109375 C 28.46875 -24.578125 28.703125 -24.8125 29.171875 -24.8125 L 33.609375 -24.8125 C 34.078125 -24.8125 34.3125 -24.578125 34.3125 -24.109375 L 34.3125 -6.484375 C 34.3125 -4.359375 33.757812 -2.742188 32.65625 -1.640625 C 31.5625 -0.546875 29.953125 0 27.828125 0 Z M 10.203125 0 "/></g></g></g><g fill="#050a30" fill-opacity="1"><g transform="translate(198.645239, 238.238436)"><g><path d="M 31.546875 -14.28125 C 31.546875 -12.375 31.09375 -10.960938 30.1875 -10.046875 C 29.28125 -9.140625 27.878906 -8.6875 25.984375 -8.6875 L 22.875 -8.6875 L 30.703125 -1.34375 C 30.941406 -1.132812 31.0625 -0.898438 31.0625 -0.640625 C 31.0625 -0.453125 30.988281 -0.296875 30.84375 -0.171875 C 30.695312 -0.0546875 30.492188 0 30.234375 0 L 25.421875 0 C 24.921875 0 24.492188 -0.175781 24.140625 -0.53125 L 15.453125 -8.6875 L 9.578125 -8.6875 L 9.578125 -0.703125 C 9.578125 -0.234375 9.335938 0 8.859375 0 L 4.4375 0 C 3.957031 0 3.71875 -0.234375 3.71875 -0.703125 L 3.71875 -24.109375 C 3.71875 -24.578125 3.957031 -24.8125 4.4375 -24.8125 L 25.984375 -24.8125 C 27.878906 -24.8125 29.28125 -24.359375 30.1875 -23.453125 C 31.09375 -22.546875 31.546875 -21.144531 31.546875 -19.25 Z M 25.703125 -18.078125 C 25.703125 -18.835938 25.535156 -19.378906 25.203125 -19.703125 C 24.867188 -20.035156 24.328125 -20.203125 23.578125 -20.203125 L 9.578125 -20.203125 L 9.578125 -13.296875 L 23.578125 -13.296875 C 24.328125 -13.296875 24.867188 -13.46875 25.203125 -13.8125 C 25.535156 -14.15625 25.703125 -14.691406 25.703125 -15.421875 Z M 25.703125 -18.078125 "/></g></g></g><g fill="#050a30" fill-opacity="1"><g transform="translate(243.493304, 238.238436)"><g><path d="M 17.1875 -20.140625 L 17.1875 -4.71875 L 25.8125 -4.71875 C 26.28125 -4.71875 26.515625 -4.476562 26.515625 -4 L 26.515625 -0.703125 C 26.515625 -0.234375 26.28125 0 25.8125 0 L 2.765625 0 C 2.296875 0 2.0625 -0.234375 2.0625 -0.703125 L 2.0625 -4 C 2.0625 -4.476562 2.296875 -4.71875 2.765625 -4.71875 L 11.34375 -4.71875 L 11.34375 -20.140625 L 2.765625 -20.140625 C 2.296875 -20.140625 2.0625 -20.375 2.0625 -20.84375 L 2.0625 -24.109375 C 2.0625 -24.578125 2.296875 -24.8125 2.765625 -24.8125 L 25.8125 -24.8125 C 26.28125 -24.8125 26.515625 -24.578125 26.515625 -24.109375 L 26.515625 -20.84375 C 26.515625 -20.375 26.28125 -20.140625 25.8125 -20.140625 Z M 17.1875 -20.140625 "/></g></g></g><g fill="#050a30" fill-opacity="1"><g transform="translate(282.704802, 238.238436)"><g><path d="M 30.140625 -24.8125 C 30.609375 -24.8125 30.84375 -24.578125 30.84375 -24.109375 L 30.84375 -20.203125 C 30.84375 -19.734375 30.609375 -19.5 30.140625 -19.5 L 18.546875 -19.5 L 18.546875 -0.703125 C 18.546875 -0.234375 18.304688 0 17.828125 0 L 13.40625 0 C 12.925781 0 12.6875 -0.234375 12.6875 -0.703125 L 12.6875 -19.5 L 1.0625 -19.5 C 0.59375 -19.5 0.359375 -19.734375 0.359375 -20.203125 L 0.359375 -24.109375 C 0.359375 -24.578125 0.59375 -24.8125 1.0625 -24.8125 Z M 30.140625 -24.8125 "/></g></g></g><g fill="#050a30" fill-opacity="1"><g transform="translate(324.539617, 238.238436)"><g><path d="M 13.15625 0 C 12.675781 0 12.4375 -0.234375 12.4375 -0.703125 L 12.4375 -9.5 L -0.5 -23.546875 C -0.6875 -23.734375 -0.78125 -23.941406 -0.78125 -24.171875 C -0.78125 -24.367188 -0.703125 -24.523438 -0.546875 -24.640625 C -0.390625 -24.753906 -0.160156 -24.8125 0.140625 -24.8125 L 4.828125 -24.8125 C 5.296875 -24.8125 5.707031 -24.632812 6.0625 -24.28125 L 15.25 -14.21875 L 15.53125 -14.21875 L 24.703125 -24.28125 C 25.066406 -24.632812 25.484375 -24.8125 25.953125 -24.8125 L 30.625 -24.8125 C 30.914062 -24.8125 31.132812 -24.757812 31.28125 -24.65625 C 31.4375 -24.550781 31.515625 -24.40625 31.515625 -24.21875 C 31.515625 -24.03125 31.410156 -23.804688 31.203125 -23.546875 L 18.296875 -9.5 L 18.296875 -0.703125 C 18.296875 -0.234375 18.054688 0 17.578125 0 Z M 13.15625 0 "/></g></g></g><g fill="#f4f6fc" fill-opacity="1"><g transform="translate(16.654094, 195.799201)"><g><path d="M 64.515625 -35.890625 L 64.515625 -35.28125 L 100.53125 -3.578125 C 101.351562 -2.753906 101.765625 -2.054688 101.765625 -1.484375 C 101.765625 -1.066406 101.578125 -0.710938 101.203125 -0.421875 C 100.835938 -0.140625 100.320312 0 99.65625 0 L 91.15625 0 C 89.832031 0 88.722656 -0.410156 87.828125 -1.234375 L 48.234375 -35.890625 L 26.390625 -35.890625 L 26.390625 -1.609375 C 26.390625 -0.535156 25.859375 0 24.796875 0 L 17.015625 0 C 15.953125 0 15.421875 -0.535156 15.421875 -1.609375 L 15.421875 -84.734375 C 15.421875 -85.804688 15.953125 -86.34375 17.015625 -86.34375 L 85.234375 -86.34375 C 92.222656 -86.34375 97.300781 -84.78125 100.46875 -81.65625 C 103.632812 -78.53125 105.21875 -73.472656 105.21875 -66.484375 L 105.21875 -55.875 C 105.21875 -48.882812 103.65625 -43.804688 100.53125 -40.640625 C 97.40625 -37.472656 92.304688 -35.890625 85.234375 -35.890625 Z M 26.390625 -76.84375 L 26.390625 -45.515625 L 83.375 -45.515625 C 87.15625 -45.515625 89.910156 -46.375 91.640625 -48.09375 C 93.367188 -49.820312 94.234375 -52.539062 94.234375 -56.25 L 94.234375 -65.984375 C 94.234375 -69.765625 93.367188 -72.519531 91.640625 -74.25 C 89.910156 -75.976562 87.15625 -76.84375 83.375 -76.84375 Z M 26.390625 -76.84375 "/></g></g></g><g fill="#f4f6fc" fill-opacity="1"><g transform="translate(236.458568, 195.799544)"><g><path d="M 95.09375 -86.34375 C 110.3125 -86.34375 117.921875 -78.734375 117.921875 -63.515625 L 117.921875 -22.8125 C 117.921875 -7.601562 110.3125 0 95.09375 0 L 17.015625 0 C 15.953125 0 15.421875 -0.535156 15.421875 -1.609375 L 15.421875 -84.734375 C 15.421875 -85.804688 15.953125 -86.34375 17.015625 -86.34375 Z M 107.0625 -62.65625 C 107.0625 -67.507812 105.992188 -71.003906 103.859375 -73.140625 C 101.722656 -75.273438 98.226562 -76.34375 93.375 -76.34375 L 26.390625 -76.34375 L 26.390625 -9.984375 L 93.375 -9.984375 C 98.226562 -9.984375 101.722656 -11.070312 103.859375 -13.25 C 105.992188 -15.4375 107.0625 -18.914062 107.0625 -23.6875 Z M 107.0625 -62.65625 "/></g></g></g></svg>