<svg xmlns="http://www.w3.org/2000/svg" xmlns:xlink="http://www.w3.org/1999/xlink" width="500" zoomAndPan="magnify" viewBox="0 0 375 374.999991" height="500" preserveAspectRatio="xMidYMid meet" version="1.0"><defs><g/><clipPath id="40ed73ce05"><path d="M 86.175781 140.949219 L 314.925781 140.949219 L 314.925781 208.449219 L 86.175781 208.449219 Z M 86.175781 140.949219 " clip-rule="nonzero"/></clipPath></defs><g clip-path="url(#40ed73ce05)"><path fill="#050a30" d="M 86.183594 140.949219 L 314.917969 140.949219 L 314.917969 208.449219 L 86.183594 208.449219 L 86.183594 140.949219 " fill-opacity="1" fill-rule="nonzero"/></g><g fill="#f4f6fc" fill-opacity="1"><g transform="translate(158.00853, 210.685503)"><g><path d="M 11.046875 0 C 10.347656 0 10 -0.347656 10 -1.046875 L 10 -54.953125 C 10 -55.648438 10.347656 -56 11.046875 -56 L 16.3125 -56 C 17.226562 -56 17.976562 -55.679688 18.5625 -55.046875 L 67.515625 -9.59375 L 67.921875 -9.59375 L 67.921875 -54.953125 C 67.921875 -55.648438 68.265625 -56 68.953125 -56 L 73.921875 -56 C 74.671875 -56 75.046875 -55.648438 75.046875 -54.953125 L 75.046875 -1.046875 C 75.046875 -0.347656 74.671875 0 73.921875 0 L 69.046875 0 C 68.296875 0 67.597656 -0.316406 66.953125 -0.953125 L 17.515625 -46.796875 L 17.125 -46.796875 L 17.125 -1.046875 C 17.125 -0.347656 16.773438 0 16.078125 0 Z M 11.046875 0 "/></g></g></g><g fill="#050a30" fill-opacity="1"><g transform="translate(89.665414, 238.210912)"><g><path d="M 5.375 0 C 4.15625 0 3.25 -0.289062 2.65625 -0.875 C 2.0625 -1.46875 1.765625 -2.390625 1.765625 -3.640625 L 1.765625 -4.640625 C 1.765625 -4.953125 1.921875 -5.109375 2.234375 -5.109375 L 5.34375 -5.109375 C 5.644531 -5.109375 5.796875 -4.953125 5.796875 -4.640625 L 5.796875 -4.140625 C 5.796875 -3.296875 6.21875 -2.875 7.0625 -2.875 L 15.21875 -2.875 C 15.71875 -2.875 16.070312 -2.984375 16.28125 -3.203125 C 16.5 -3.429688 16.609375 -3.78125 16.609375 -4.25 L 16.609375 -5.21875 C 16.609375 -5.707031 16.5 -6.054688 16.28125 -6.265625 C 16.070312 -6.484375 15.71875 -6.59375 15.21875 -6.59375 L 5.734375 -6.59375 C 4.503906 -6.59375 3.59375 -6.890625 3 -7.484375 C 2.40625 -8.078125 2.109375 -8.988281 2.109375 -10.21875 L 2.109375 -12.484375 C 2.109375 -13.710938 2.40625 -14.617188 3 -15.203125 C 3.59375 -15.796875 4.503906 -16.09375 5.734375 -16.09375 L 16.140625 -16.09375 C 17.367188 -16.09375 18.273438 -15.796875 18.859375 -15.203125 C 19.453125 -14.617188 19.75 -13.710938 19.75 -12.484375 L 19.75 -11.515625 C 19.75 -11.210938 19.597656 -11.0625 19.296875 -11.0625 L 16.1875 -11.0625 C 15.882812 -11.0625 15.734375 -11.203125 15.734375 -11.484375 L 15.734375 -11.953125 C 15.734375 -12.390625 15.617188 -12.707031 15.390625 -12.90625 C 15.171875 -13.113281 14.828125 -13.21875 14.359375 -13.21875 L 7.40625 -13.21875 C 6.925781 -13.21875 6.578125 -13.109375 6.359375 -12.890625 C 6.140625 -12.679688 6.03125 -12.332031 6.03125 -11.84375 L 6.03125 -10.859375 C 6.03125 -10.378906 6.140625 -10.023438 6.359375 -9.796875 C 6.578125 -9.578125 6.925781 -9.46875 7.40625 -9.46875 L 16.875 -9.46875 C 18.125 -9.46875 19.039062 -9.171875 19.625 -8.578125 C 20.21875 -7.992188 20.515625 -7.085938 20.515625 -5.859375 L 20.515625 -3.640625 C 20.515625 -2.390625 20.21875 -1.46875 19.625 -0.875 C 19.039062 -0.289062 18.125 0 16.875 0 Z M 5.375 0 "/></g></g></g><g fill="#050a30" fill-opacity="1"><g transform="translate(118.683945, 238.210912)"><g><path d="M 19.671875 -3.109375 C 19.972656 -3.109375 20.125 -2.953125 20.125 -2.640625 L 20.125 -0.453125 C 20.125 -0.148438 19.972656 0 19.671875 0 L 2.875 0 C 2.570312 0 2.421875 -0.148438 2.421875 -0.453125 L 2.421875 -15.640625 C 2.421875 -15.941406 2.570312 -16.09375 2.875 -16.09375 L 19.4375 -16.09375 C 19.738281 -16.09375 19.890625 -15.941406 19.890625 -15.640625 L 19.890625 -13.453125 C 19.890625 -13.148438 19.738281 -13 19.4375 -13 L 6.203125 -13 L 6.203125 -9.609375 L 16.671875 -9.609375 C 16.984375 -9.609375 17.140625 -9.457031 17.140625 -9.15625 L 17.140625 -7.078125 C 17.140625 -6.773438 16.984375 -6.625 16.671875 -6.625 L 6.203125 -6.625 L 6.203125 -3.109375 Z M 19.671875 -3.109375 "/></g></g></g><g fill="#050a30" fill-opacity="1"><g transform="translate(146.966722, 238.210912)"><g><path d="M 6.4375 0 C 5.0625 0 4.019531 -0.351562 3.3125 -1.0625 C 2.601562 -1.78125 2.25 -2.828125 2.25 -4.203125 L 2.25 -11.90625 C 2.25 -13.289062 2.601562 -14.332031 3.3125 -15.03125 C 4.019531 -15.738281 5.0625 -16.09375 6.4375 -16.09375 L 18.0625 -16.09375 C 19.4375 -16.09375 20.476562 -15.738281 21.1875 -15.03125 C 21.90625 -14.332031 22.265625 -13.289062 22.265625 -11.90625 L 22.265625 -10.46875 C 22.265625 -10.15625 22.109375 -10 21.796875 -10 L 18.75 -10 C 18.4375 -10 18.28125 -10.15625 18.28125 -10.46875 L 18.28125 -11.3125 C 18.28125 -11.863281 18.144531 -12.273438 17.875 -12.546875 C 17.613281 -12.816406 17.191406 -12.953125 16.609375 -12.953125 L 7.796875 -12.953125 C 7.179688 -12.953125 6.734375 -12.8125 6.453125 -12.53125 C 6.179688 -12.257812 6.046875 -11.816406 6.046875 -11.203125 L 6.046875 -4.921875 C 6.046875 -4.304688 6.179688 -3.859375 6.453125 -3.578125 C 6.734375 -3.304688 7.179688 -3.171875 7.796875 -3.171875 L 16.609375 -3.171875 C 17.191406 -3.171875 17.613281 -3.300781 17.875 -3.5625 C 18.144531 -3.820312 18.28125 -4.238281 18.28125 -4.8125 L 18.28125 -5.640625 C 18.28125 -5.941406 18.4375 -6.09375 18.75 -6.09375 L 21.796875 -6.09375 C 22.109375 -6.09375 22.265625 -5.941406 22.265625 -5.640625 L 22.265625 -4.203125 C 22.265625 -2.828125 21.90625 -1.78125 21.1875 -1.0625 C 20.476562 -0.351562 19.4375 0 18.0625 0 Z M 6.4375 0 "/></g></g></g><g fill="#050a30" fill-opacity="1"><g transform="translate(178.238491, 238.210912)"><g><path d="M 6.625 0 C 5.238281 0 4.191406 -0.351562 3.484375 -1.0625 C 2.773438 -1.78125 2.421875 -2.828125 2.421875 -4.203125 L 2.421875 -15.640625 C 2.421875 -15.941406 2.570312 -16.09375 2.875 -16.09375 L 5.75 -16.09375 C 6.050781 -16.09375 6.203125 -15.941406 6.203125 -15.640625 L 6.203125 -5.203125 C 6.203125 -4.585938 6.335938 -4.140625 6.609375 -3.859375 C 6.890625 -3.585938 7.335938 -3.453125 7.953125 -3.453125 L 16.71875 -3.453125 C 17.332031 -3.453125 17.773438 -3.585938 18.046875 -3.859375 C 18.328125 -4.140625 18.46875 -4.585938 18.46875 -5.203125 L 18.46875 -15.640625 C 18.46875 -15.941406 18.617188 -16.09375 18.921875 -16.09375 L 21.796875 -16.09375 C 22.109375 -16.09375 22.265625 -15.941406 22.265625 -15.640625 L 22.265625 -4.203125 C 22.265625 -2.828125 21.90625 -1.78125 21.1875 -1.0625 C 20.476562 -0.351562 19.4375 0 18.0625 0 Z M 6.625 0 "/></g></g></g><g fill="#050a30" fill-opacity="1"><g transform="translate(209.809167, 238.210912)"><g><path d="M 20.46875 -9.265625 C 20.46875 -8.023438 20.171875 -7.109375 19.578125 -6.515625 C 18.992188 -5.929688 18.085938 -5.640625 16.859375 -5.640625 L 14.828125 -5.640625 L 19.921875 -0.875 C 20.066406 -0.738281 20.140625 -0.582031 20.140625 -0.40625 C 20.140625 -0.289062 20.09375 -0.191406 20 -0.109375 C 19.914062 -0.0351562 19.789062 0 19.625 0 L 16.484375 0 C 16.171875 0 15.894531 -0.113281 15.65625 -0.34375 L 10.03125 -5.640625 L 6.203125 -5.640625 L 6.203125 -0.453125 C 6.203125 -0.148438 6.050781 0 5.75 0 L 2.875 0 C 2.570312 0 2.421875 -0.148438 2.421875 -0.453125 L 2.421875 -15.640625 C 2.421875 -15.941406 2.570312 -16.09375 2.875 -16.09375 L 16.859375 -16.09375 C 18.085938 -16.09375 18.992188 -15.796875 19.578125 -15.203125 C 20.171875 -14.617188 20.46875 -13.710938 20.46875 -12.484375 Z M 16.671875 -11.734375 C 16.671875 -12.222656 16.5625 -12.570312 16.34375 -12.78125 C 16.132812 -13 15.785156 -13.109375 15.296875 -13.109375 L 6.203125 -13.109375 L 6.203125 -8.625 L 15.296875 -8.625 C 15.785156 -8.625 16.132812 -8.734375 16.34375 -8.953125 C 16.5625 -9.179688 16.671875 -9.53125 16.671875 -10 Z M 16.671875 -11.734375 "/></g></g></g><g fill="#050a30" fill-opacity="1"><g transform="translate(238.89667, 238.210912)"><g><path d="M 11.15625 -13.0625 L 11.15625 -3.0625 L 16.75 -3.0625 C 17.050781 -3.0625 17.203125 -2.90625 17.203125 -2.59375 L 17.203125 -0.453125 C 17.203125 -0.148438 17.050781 0 16.75 0 L 1.796875 0 C 1.484375 0 1.328125 -0.148438 1.328125 -0.453125 L 1.328125 -2.59375 C 1.328125 -2.90625 1.484375 -3.0625 1.796875 -3.0625 L 7.359375 -3.0625 L 7.359375 -13.0625 L 1.796875 -13.0625 C 1.484375 -13.0625 1.328125 -13.21875 1.328125 -13.53125 L 1.328125 -15.640625 C 1.328125 -15.941406 1.484375 -16.09375 1.796875 -16.09375 L 16.75 -16.09375 C 17.050781 -16.09375 17.203125 -15.941406 17.203125 -15.640625 L 17.203125 -13.53125 C 17.203125 -13.21875 17.050781 -13.0625 16.75 -13.0625 Z M 11.15625 -13.0625 "/></g></g></g><g fill="#050a30" fill-opacity="1"><g transform="translate(264.328416, 238.210912)"><g><path d="M 19.546875 -16.09375 C 19.859375 -16.09375 20.015625 -15.941406 20.015625 -15.640625 L 20.015625 -13.109375 C 20.015625 -12.804688 19.859375 -12.65625 19.546875 -12.65625 L 12.03125 -12.65625 L 12.03125 -0.453125 C 12.03125 -0.148438 11.875 0 11.5625 0 L 8.6875 0 C 8.382812 0 8.234375 -0.148438 8.234375 -0.453125 L 8.234375 -12.65625 L 0.6875 -12.65625 C 0.382812 -12.65625 0.234375 -12.804688 0.234375 -13.109375 L 0.234375 -15.640625 C 0.234375 -15.941406 0.382812 -16.09375 0.6875 -16.09375 Z M 19.546875 -16.09375 "/></g></g></g><g fill="#050a30" fill-opacity="1"><g transform="translate(291.46159, 238.210912)"><g><path d="M 8.53125 0 C 8.226562 0 8.078125 -0.148438 8.078125 -0.453125 L 8.078125 -6.15625 L -0.328125 -15.265625 C -0.441406 -15.390625 -0.5 -15.53125 -0.5 -15.6875 C -0.5 -15.8125 -0.445312 -15.910156 -0.34375 -15.984375 C -0.25 -16.054688 -0.101562 -16.09375 0.09375 -16.09375 L 3.125 -16.09375 C 3.4375 -16.09375 3.707031 -15.976562 3.9375 -15.75 L 9.890625 -9.21875 L 10.078125 -9.21875 L 16.03125 -15.75 C 16.257812 -15.976562 16.53125 -16.09375 16.84375 -16.09375 L 19.875 -16.09375 C 20.050781 -16.09375 20.191406 -16.054688 20.296875 -15.984375 C 20.398438 -15.921875 20.453125 -15.828125 20.453125 -15.703125 C 20.453125 -15.585938 20.378906 -15.441406 20.234375 -15.265625 L 11.875 -6.15625 L 11.875 -0.453125 C 11.875 -0.148438 11.71875 0 11.40625 0 Z M 8.53125 0 "/></g></g></g><g fill="#f4f6fc" fill-opacity="1"><g transform="translate(91.773572, 210.685709)"><g><path d="M 41.84375 -23.28125 L 41.84375 -22.875 L 65.203125 -2.3125 C 65.734375 -1.78125 66 -1.328125 66 -0.953125 C 66 -0.691406 65.878906 -0.46875 65.640625 -0.28125 C 65.398438 -0.09375 65.066406 0 64.640625 0 L 59.125 0 C 58.269531 0 57.546875 -0.265625 56.953125 -0.796875 L 31.28125 -23.28125 L 17.125 -23.28125 L 17.125 -1.046875 C 17.125 -0.347656 16.773438 0 16.078125 0 L 11.046875 0 C 10.347656 0 10 -0.347656 10 -1.046875 L 10 -54.953125 C 10 -55.648438 10.347656 -56 11.046875 -56 L 55.28125 -56 C 59.8125 -56 63.101562 -54.984375 65.15625 -52.953125 C 67.207031 -50.929688 68.234375 -47.65625 68.234375 -43.125 L 68.234375 -36.234375 C 68.234375 -31.703125 67.21875 -28.410156 65.1875 -26.359375 C 63.164062 -24.304688 59.863281 -23.28125 55.28125 -23.28125 Z M 17.125 -49.84375 L 17.125 -29.515625 L 54.078125 -29.515625 C 56.535156 -29.515625 58.320312 -30.070312 59.4375 -31.1875 C 60.5625 -32.3125 61.125 -34.078125 61.125 -36.484375 L 61.125 -42.796875 C 61.125 -45.253906 60.5625 -47.039062 59.4375 -48.15625 C 58.320312 -49.28125 56.535156 -49.84375 54.078125 -49.84375 Z M 17.125 -49.84375 "/></g></g></g><g fill="#f4f6fc" fill-opacity="1"><g transform="translate(234.334105, 210.685928)"><g><path d="M 61.6875 -56 C 71.550781 -56 76.484375 -51.066406 76.484375 -41.203125 L 76.484375 -14.796875 C 76.484375 -4.929688 71.550781 0 61.6875 0 L 11.046875 0 C 10.347656 0 10 -0.347656 10 -1.046875 L 10 -54.953125 C 10 -55.648438 10.347656 -56 11.046875 -56 Z M 69.4375 -40.640625 C 69.4375 -43.785156 68.742188 -46.050781 67.359375 -47.4375 C 65.972656 -48.820312 63.707031 -49.515625 60.5625 -49.515625 L 17.125 -49.515625 L 17.125 -6.484375 L 60.5625 -6.484375 C 63.707031 -6.484375 65.972656 -7.1875 67.359375 -8.59375 C 68.742188 -10.007812 69.4375 -12.265625 69.4375 -15.359375 Z M 69.4375 -40.640625 "/></g></g></g></svg>